<svg width="21" height="22" viewBox="0 0 21 22" fill="none" xmlns="http://www.w3.org/2000/svg">
<path fill-rule="evenodd" clip-rule="evenodd" d="M11.7915 2.5981C11.6429 2.5318 11.501 2.46007 11.3637 2.38378C12.2514 1.96684 13.1753 1.76017 14.0505 1.80635C15.2563 1.86998 16.4282 2.41396 17.3686 3.67704C19.216 6.15833 18.674 9.29733 18.3296 11.2914C18.3156 11.3727 18.3019 11.4522 18.2886 11.5296C18.1299 12.4596 17.6862 14.7465 16.9994 16.7861C16.6541 17.8114 16.2631 18.7261 15.8423 19.3693C15.389 20.0624 15.0628 20.2 14.9117 20.2C14.4775 20.2 14.2894 20.078 14.1682 19.9117C14.006 19.6891 13.8512 19.2297 13.8512 18.3326C13.8512 17.2664 13.6784 15.896 13.1797 14.7601C12.6811 13.6248 11.7526 12.5313 10.1968 12.5313C9.29519 12.5313 8.55684 12.8268 7.98039 13.3144C7.41868 13.7895 7.04722 14.415 6.79845 15.0331C6.3058 16.2573 6.22522 17.6279 6.22522 18.3326C6.22522 18.9158 6.18214 19.4545 6.04134 19.8263C5.97478 20.0021 5.90461 20.0897 5.85369 20.1316C5.81617 20.1624 5.7537 20.2 5.60943 20.2C5.34543 20.2 4.90227 20.0172 4.38856 19.3185C3.88815 18.638 3.40841 17.5743 3.0694 16.1231C2.35633 13.0707 1.79922 10.1859 1.79922 8.40099C1.79922 6.73448 1.99173 5.31295 2.55924 4.21971C3.10252 3.17314 4.026 2.35673 5.67758 1.94949L5.67763 1.94948C6.35219 1.7831 6.85725 1.77478 7.26253 1.84364C7.66703 1.91238 8.01788 2.06566 8.37921 2.28528C8.65585 2.45344 8.90954 2.64041 9.20255 2.85637L9.20259 2.8564C9.31645 2.94031 9.43624 3.0286 9.56563 3.12187C10.0074 3.44034 10.5168 3.78136 11.1394 4.05921C11.5429 4.23927 12.0159 4.05815 12.196 3.65468C12.3761 3.25121 12.1949 2.77816 11.7915 2.5981ZM14.1348 0.208573C12.6616 0.130837 11.1787 0.583714 9.87696 1.36697C9.66094 1.21107 9.4367 1.05567 9.21025 0.918037C8.73182 0.627235 8.18975 0.378264 7.53057 0.266253C6.87217 0.154376 6.14278 0.186809 5.29453 0.39602L9.87696 1.36697L5.29448 0.396031C3.23026 0.905034 1.91034 1.99696 1.13917 3.48254C0.392214 4.92147 0.199219 6.65593 0.199219 8.40099C0.199219 10.3991 0.804178 13.4599 1.51134 16.4871C1.88245 18.0756 2.43268 19.3594 3.09949 20.2663C3.75301 21.1552 4.61431 21.8 5.60943 21.8C6.09472 21.8 6.524 21.6519 6.86999 21.3673C7.20257 21.0938 7.40766 20.7362 7.53765 20.393C7.78997 19.7267 7.82523 18.9317 7.82523 18.3326C7.82523 17.7036 7.90322 16.5736 8.28276 15.6305C8.47009 15.165 8.71312 14.7902 9.01368 14.536C9.29951 14.2942 9.67122 14.1313 10.1968 14.1313C10.836 14.1313 11.3347 14.5381 11.7147 15.4034C12.0943 16.268 12.2512 17.3983 12.2512 18.3326C12.2512 19.3463 12.4136 20.2206 12.8751 20.854C13.3776 21.5437 14.1197 21.8 14.9117 21.8C15.9394 21.8 16.683 21.007 17.1813 20.2452C17.7122 19.4335 18.1546 18.3689 18.5157 17.2967C19.2415 15.1413 19.7017 12.7602 19.8658 11.7988C19.8824 11.7016 19.9007 11.598 19.9199 11.4884L19.92 11.4883C20.2596 9.5586 20.9255 5.77508 18.652 2.72153C17.4297 1.07985 15.8199 0.297488 14.1348 0.208573ZM7.70564 3.8639C6.93263 3.65599 6.18811 3.73042 5.55218 4.09853C4.9296 4.45891 4.49358 5.05245 4.22232 5.73745C3.68552 7.093 3.7219 8.96455 4.35501 10.921C4.49104 11.3413 4.9421 11.5718 5.36246 11.4358C5.78282 11.2998 6.01332 10.8487 5.87729 10.4283C5.31666 8.69592 5.35292 7.22805 5.70992 6.32654C5.88556 5.88301 6.11992 5.61861 6.35374 5.48327C6.57421 5.35565 6.8721 5.29657 7.29007 5.40899C7.71674 5.52374 8.15565 5.27089 8.2704 4.84422C8.38516 4.41756 8.1323 3.97865 7.70564 3.8639Z" fill="#333333"/>
</svg>
