<svg width="28" height="25" viewBox="0 0 28 25" fill="none" xmlns="http://www.w3.org/2000/svg">
<path d="M13.6002 6.57002C13.9592 6.57002 14.2502 6.279 14.2502 5.92002C14.2502 5.56103 13.9592 5.27002 13.6002 5.27002C13.2412 5.27002 12.9502 5.56103 12.9502 5.92002C12.9502 6.279 13.2412 6.57002 13.6002 6.57002Z" fill="#333333"/>
<path d="M4.85996 14.9899C5.21895 14.9899 5.50996 14.6989 5.50996 14.3399C5.50996 13.981 5.21895 13.6899 4.85996 13.6899C4.50098 13.6899 4.20996 13.981 4.20996 14.3399C4.20996 14.6989 4.50098 14.9899 4.85996 14.9899Z" fill="#333333"/>
<path d="M25.14 13.12C26.4533 11.7377 27.19 9.90666 27.2 8C27.2 3.2 22.35 0 17.81 0C13.08 0 9.13 3.24 8.81 7.39C4.53 7.65 0 10.76 0 15.39C0.0155557 17.2867 0.752027 19.1064 2.06 20.48C2.17875 20.9886 2.16576 21.5192 2.02227 22.0214C1.87878 22.5236 1.60953 22.9809 1.24 23.35C1.15114 23.4425 1.09071 23.5586 1.0659 23.6845C1.04108 23.8103 1.05292 23.9407 1.1 24.06C1.14823 24.1792 1.23127 24.2812 1.3383 24.3525C1.44533 24.4239 1.57138 24.4613 1.7 24.46C3.20869 24.4584 4.66023 23.8828 5.76 22.85C6.93449 23.2201 8.15857 23.409 9.39 23.41C14.12 23.41 18.06 20.17 18.39 16.02C19.4083 15.9702 20.4163 15.7921 21.39 15.49C22.4945 16.514 23.9438 17.0852 25.45 17.09C25.5786 17.0913 25.7047 17.0539 25.8117 16.9825C25.9187 16.9112 26.0018 16.8092 26.05 16.69C26.1052 16.5813 26.1298 16.4596 26.1209 16.338C26.1121 16.2165 26.0703 16.0996 26 16C25.621 15.6345 25.3427 15.1774 25.192 14.6729C25.0414 14.1683 25.0235 13.6335 25.14 13.12V13.12ZM22.34 9.73C22.515 9.73 22.6829 9.66046 22.8067 9.53669C22.9305 9.41292 23 9.24504 23 9.07C23 8.89761 22.9315 8.73228 22.8096 8.61038C22.6877 8.48848 22.5224 8.42 22.35 8.42H13.88C12.6889 7.83736 11.3937 7.49743 10.07 7.42C10.44 4 13.81 1.3 17.81 1.3C22.19 1.3 25.9 4.38 25.9 8C25.8799 9.62225 25.2268 11.1725 24.08 12.32C24.006 12.3961 23.9512 12.4886 23.92 12.59C23.6302 13.5831 23.7047 14.647 24.13 15.59C23.3615 15.3433 22.6717 14.8984 22.13 14.3C22.0697 14.2326 21.9957 14.179 21.9129 14.1427C21.83 14.1065 21.7404 14.0885 21.65 14.09C21.5677 14.0922 21.4864 14.1091 21.41 14.14C20.4641 14.4794 19.4736 14.6782 18.47 14.73C18.27 12.7891 17.332 10.9992 15.85 9.73H22.34ZM3.28 20C3.2488 19.8986 3.19396 19.8061 3.12 19.73C1.96834 18.5775 1.31484 17.0192 1.3 15.39C1.3 11.75 5 8.67 9.39 8.67C13.78 8.67 17.16 11.67 17.16 15.39C17.16 19.11 13.67 22.11 9.39 22.11C8.17712 22.1124 6.97288 21.9061 5.83 21.5C5.70791 21.4506 5.57369 21.4394 5.44511 21.468C5.31653 21.4966 5.19967 21.5635 5.11 21.66C4.56835 22.2584 3.87849 22.7033 3.11 22.95C3.50998 22.0168 3.57013 20.9729 3.28 20V20Z" fill="#333333"/>
<path d="M7.0001 15H13.6001C13.7725 15 13.9378 14.9315 14.0597 14.8096C14.1816 14.6877 14.2501 14.5223 14.2501 14.35C14.2501 14.1776 14.1816 14.0122 14.0597 13.8903C13.9378 13.7684 13.7725 13.7 13.6001 13.7H7.0001C6.82771 13.7 6.66238 13.7684 6.54048 13.8903C6.41858 14.0122 6.3501 14.1776 6.3501 14.35C6.3501 14.5223 6.41858 14.6877 6.54048 14.8096C6.66238 14.9315 6.82771 15 7.0001 15V15Z" fill="#333333"/>
<path d="M14.2502 17.5001C14.2502 17.3268 14.182 17.1604 14.0604 17.0369C13.9388 16.9134 13.7735 16.8427 13.6002 16.8401H4.86016C4.70038 16.8599 4.55334 16.9374 4.44672 17.058C4.3401 17.1786 4.28125 17.3341 4.28125 17.4951C4.28125 17.6561 4.3401 17.8115 4.44672 17.9322C4.55334 18.0528 4.70038 18.1303 4.86016 18.1501H13.6002C13.7718 18.1475 13.9356 18.0782 14.0569 17.9569C14.1783 17.8355 14.2476 17.6717 14.2502 17.5001Z" fill="#333333"/>
<path d="M22.34 5.26001H15.7C15.5402 5.27979 15.3932 5.35729 15.2866 5.47793C15.1799 5.59856 15.1211 5.75401 15.1211 5.91501C15.1211 6.07601 15.1799 6.23146 15.2866 6.35209C15.3932 6.47273 15.5402 6.55023 15.7 6.57001H22.34C22.4998 6.55023 22.6468 6.47273 22.7535 6.35209C22.8601 6.23146 22.9189 6.07601 22.9189 5.91501C22.9189 5.75401 22.8601 5.59856 22.7535 5.47793C22.6468 5.35729 22.4998 5.27979 22.34 5.26001V5.26001Z" fill="#333333"/>
</svg>
