<svg id="Layer_1" data-name="Layer 1" xmlns="http://www.w3.org/2000/svg" viewBox="0 0 26 26"><defs><style>.cls-1{fill:none;}.cls-2{fill:#333;}</style></defs><title>Artboard 1</title><polygon class="cls-1" points="20.5 6.98 19.28 4.83 15.59 6.98 20.5 6.98"/><polygon class="cls-1" points="11.12 6.98 13.35 6.98 18.72 3.85 18.16 2.88 11.12 6.98"/><path class="cls-1" d="M16.92,1.38a1.08,1.08,0,0,0-.84.11L6.66,7H8.88L17.6,1.9h0A1.08,1.08,0,0,0,16.92,1.38Z"/><path class="cls-1" d="M23.89,12.72a1.7,1.7,0,0,1,.81.61,1.7,1.7,0,0,0-.81-.61Z"/><path class="cls-1" d="M.21,22.76V9.23A2.26,2.26,0,0,1,2.47,7H4.42L15.52.52a2.23,2.23,0,0,1,2.8.46,2.23,2.23,0,0,0-2.8-.46L4.42,7H2.47A2.26,2.26,0,0,0,.21,9.23V22.76a2.26,2.26,0,0,0,.88,1.78A2.26,2.26,0,0,1,.21,22.76Z"/><path class="cls-1" d="M1.34,9.23V22.76a1.13,1.13,0,0,0,1.13,1.13H21.64a1.12,1.12,0,0,0,1.12-1.13V19.38H19.38a3.38,3.38,0,1,1,0-6.76h3.38V9.23a1.12,1.12,0,0,0-1.12-1.12H2.47A1.13,1.13,0,0,0,1.34,9.23Z"/><path class="cls-1" d="M21.82,7a2.25,2.25,0,0,1,1.91,1.4A2.25,2.25,0,0,0,21.82,7l-.47-.82Z"/><path class="cls-1" d="M23.33,13.74H19.38a2.26,2.26,0,0,0,0,4.51h3.95a.56.56,0,0,0,.56-.56V14.31A.57.57,0,0,0,23.33,13.74Z"/><path class="cls-2" d="M24.1,12.58V9.23A2.45,2.45,0,0,0,22,6.8L18.76,1.23A2.46,2.46,0,0,0,17.27.08a2.42,2.42,0,0,0-1.86.25l-11,6.44H2.47A2.47,2.47,0,0,0,0,9.23V22.76a2.48,2.48,0,0,0,2.47,2.47H21.64a2.47,2.47,0,0,0,2.46-2.47V19.42a1.91,1.91,0,0,0,1.13-1.73V14.31A1.89,1.89,0,0,0,24.1,12.58ZM20.51,7H15.59l3.69-2.15ZM18.72,3.85,13.35,7H11.12l7-4.1ZM8.88,7H6.66l9.42-5.49a1.12,1.12,0,0,1,1.52.41h0ZM21.64,8.11a1.12,1.12,0,0,1,1.12,1.12v3.39H19.38a3.38,3.38,0,1,0,0,6.76h3.38v3.38a1.12,1.12,0,0,1-1.12,1.13H2.47a1.13,1.13,0,0,1-1.13-1.13V9.23A1.13,1.13,0,0,1,2.47,8.11Zm2.25,6.2v3.38a.56.56,0,0,1-.56.56H19.38a2.26,2.26,0,0,1,0-4.51h3.95A.57.57,0,0,1,23.89,14.31Z"/><path class="cls-2" d="M19.38,14.87A1.13,1.13,0,1,0,20.51,16,1.14,1.14,0,0,0,19.38,14.87Z"/></svg>