<svg xmlns="http://www.w3.org/2000/svg" viewBox="0 0 25.6 21.6"><defs><style>.cls-1{fill:#333;}</style></defs><title>Asset 1</title><g id="Layer_2" data-name="Layer 2"><g id="Layer_1-2" data-name="Layer 1"><path class="cls-1" d="M17.2,10.4H14.8V8a.8.8,0,0,0-.8-.8H11.6a.8.8,0,0,0-.8.8v2.4H8.4a.8.8,0,0,0-.8.8v2.4a.8.8,0,0,0,.8.8h2.4v2.4a.8.8,0,0,0,.8.8H14a.8.8,0,0,0,.8-.8V14.4h2.4a.8.8,0,0,0,.8-.8V11.2A.8.8,0,0,0,17.2,10.4Zm-.8,2.4H14a.8.8,0,0,0-.8.8V16h-.8V13.6a.8.8,0,0,0-.8-.8H9.2V12h2.4a.8.8,0,0,0,.8-.8V8.8h.8v2.4a.8.8,0,0,0,.8.8h2.4Z"/><path class="cls-1" d="M22.4,3.2H17.2V2.4A2.39,2.39,0,0,0,14.8,0h-4A2.39,2.39,0,0,0,8.4,2.4v.8H3.2A3.2,3.2,0,0,0,0,6.4v12a3.2,3.2,0,0,0,3.2,3.2H22.4a3.2,3.2,0,0,0,3.2-3.2V6.4A3.2,3.2,0,0,0,22.4,3.2ZM10,2.4a.79.79,0,0,1,.8-.8h4a.79.79,0,0,1,.56.23.82.82,0,0,1,.24.57v.8H10Zm14,16A1.6,1.6,0,0,1,22.4,20H3.2a1.6,1.6,0,0,1-1.6-1.6V6.4A1.6,1.6,0,0,1,3.2,4.8H22.4A1.6,1.6,0,0,1,24,6.4Z"/></g></g></svg>