<svg width="28" height="26" viewBox="0 0 28 26" fill="none" xmlns="http://www.w3.org/2000/svg">
<path fill-rule="evenodd" clip-rule="evenodd" d="M15.4048 0.999951C15.4048 0.558123 15.0466 0.199951 14.6048 0.199951C14.1629 0.199951 13.8048 0.558123 13.8048 0.999951V2.1718L2.20391 9.90571L2.15882 9.93577C1.79243 10.1818 1.69446 10.678 1.93986 11.0448C2.18526 11.4116 2.68133 11.5104 3.04853 11.2656L3.05072 11.2641L3.08901 11.2386C4.33439 10.4146 5.75391 10.0638 7.03547 10.0947C8.34612 10.1264 9.42523 10.5518 10.0391 11.1656C10.3515 11.4781 10.858 11.4781 11.1705 11.1656C11.4385 10.8976 11.896 10.6488 12.5245 10.4692C12.9163 10.3573 13.351 10.279 13.8048 10.2368V17.2378L2.84333 13.8359C2.5039 13.7306 2.13567 13.8618 1.93934 14.1581C1.74302 14.4543 1.76569 14.8446 1.99499 15.1161L2.22581 15.3895L0.471991 16.9263C0.139692 17.2175 0.106363 17.7229 0.397549 18.0552C0.688734 18.3875 1.19417 18.4209 1.52647 18.1297L3.25827 16.6121L7.69165 21.8622L5.93546 24.564C5.69467 24.9344 5.79978 25.43 6.17023 25.6707C6.54068 25.9115 7.03618 25.8064 7.27698 25.436L9.12036 22.6H22.2062L24.3662 25.48C24.6313 25.8335 25.1327 25.9051 25.4862 25.64C25.8397 25.3749 25.9113 24.8735 25.6462 24.52L24.2062 22.6H25.8062C26.2017 22.6 26.5379 22.311 26.5972 21.9199C26.6565 21.5289 26.4211 21.1532 26.0433 21.0359L15.4048 17.7343V10.2368C15.8586 10.279 16.2933 10.3573 16.685 10.4692C17.3135 10.6488 17.771 10.8976 18.0391 11.1656C18.3515 11.4781 18.858 11.4781 19.1705 11.1656C19.7647 10.5714 20.883 10.1792 22.2502 10.1699C23.5954 10.1608 25.0358 10.5272 26.1658 11.2688C26.5343 11.5106 27.0289 11.4089 27.272 11.0413C27.5151 10.6737 27.4152 10.1788 27.0485 9.93431L27.0437 9.93111L15.4048 2.1718V0.999951ZM7.19819 8.49915L14.6048 3.56143L22.12 8.5716C20.835 8.59795 19.554 8.91069 18.5946 9.57332C18.1554 9.28892 17.6466 9.07988 17.1245 8.93073C16.3423 8.70723 15.467 8.59995 14.6048 8.59995C13.7425 8.59995 12.8672 8.70723 12.085 8.93073C11.5651 9.07929 11.0582 9.28725 10.6202 9.56992C9.69246 8.90761 8.47131 8.54989 7.19819 8.49915ZM9.05774 21L4.9837 16.1755L20.5294 21H9.05774Z" fill="#333333"/>
</svg>
