<svg xmlns="http://www.w3.org/2000/svg" viewBox="0 0 69.5 105.83"><defs><style>.cls-1{fill:#333;}</style></defs><title>Asset</title><g id="Layer_2" data-name="Layer 2"><g id="Layer_1-2" data-name="Layer 1"><path class="cls-1" d="M66.8,28.24,54,20.86l5.06-8.76,4.19,2.42a3.37,3.37,0,0,0,3.37-5.84L52.39.45A3.37,3.37,0,1,0,49,6.29l4.23,2.44-5.06,8.76L35.43,10.12A5.54,5.54,0,0,0,30.35,10,7.5,7.5,0,0,0,27,13.08l-1.91,3.31a7.46,7.46,0,0,0-1,4.48,5.51,5.51,0,0,0,2.67,4.31l.7.41L6.26,62.27C2.31,69.11,4.93,77.52,11,82.49a1.53,1.53,0,0,0-.14.21L.45,100.78a3.37,3.37,0,0,0,5.84,3.37L16.73,86.07c.06-.11.11-.22.16-.33,7.21,2.47,15.45.46,19.29-6.19l4.56-7.9a1.37,1.37,0,0,0,.13-.2c0-.07.07-.13.1-.2l5.53-9.57a1.76,1.76,0,0,0,.14-.23c0-.08.09-.16.13-.24l5.58-9.67.06-.1,0,0a.43.43,0,0,1,0-.07l4.89-8.47.75.43a5.52,5.52,0,0,0,5.07.15,7.45,7.45,0,0,0,3.36-3.12L68.45,37a7.52,7.52,0,0,0,1-4.47A5.53,5.53,0,0,0,66.8,28.24ZM48.26,45.15l-7.58-4.38a3.37,3.37,0,0,0-3.37,5.84L44.89,51l-2.41,4.17L39.61,53.5a3.37,3.37,0,0,0-3.37,5.83L39.11,61l-2.4,4.17-7.58-4.37a3.37,3.37,0,0,0-3.37,5.83L33.34,71l-3,5.18c-2.15,3.71-8,5.34-13.44,2.21s-7-9-4.82-12.75L33.27,29,51.52,39.5ZM62.62,33.66,60.71,37l0,0L30.88,19.8l0,0,1.9-3.31,0,0,29.8,17.21Z"/></g></g></svg>