<svg width="17" height="26" viewBox="0 0 17 26" fill="none" xmlns="http://www.w3.org/2000/svg">
<path fill-rule="evenodd" clip-rule="evenodd" d="M11.8414 1.06273C12.0623 0.680097 12.5516 0.548997 12.9343 0.769911L16.3195 2.72437C16.7021 2.94528 16.8332 3.43456 16.6123 3.81719C16.3914 4.19983 15.9021 4.33093 15.5195 4.11001L14.5249 3.53577L13.3235 5.61652L16.3577 7.36828C16.7782 7.61107 16.9549 8.03341 16.991 8.39356C17.0275 8.75696 16.9368 9.13207 16.7499 9.45584L16.2967 10.2407C16.1098 10.5645 15.8303 10.8306 15.4973 10.9807C15.1674 11.1295 14.7133 11.1877 14.2927 10.9449L14.1155 10.8425L12.9539 12.8544C12.9511 12.8597 12.9482 12.8649 12.9453 12.8702C12.9438 12.8728 12.9423 12.8754 12.9408 12.878C12.9363 12.8858 12.9317 12.8935 12.9269 12.9011L11.6007 15.1983C11.5915 15.2176 11.5815 15.2366 11.5707 15.2554C11.5598 15.2741 11.5483 15.2923 11.5363 15.3099L10.2245 17.5818C10.2165 17.5982 10.2079 17.6144 10.1986 17.6304C10.1894 17.6465 10.1797 17.662 10.1695 17.6772L9.08656 19.5529C8.17428 21.133 6.21726 21.6099 4.50542 21.0241C4.49385 21.0503 4.48076 21.0761 4.46614 21.1014L1.98716 25.3951C1.76624 25.7778 1.27697 25.9089 0.894335 25.6879C0.511701 25.467 0.380601 24.9778 0.601515 24.5951L3.0805 20.3014C3.09061 20.2839 3.10128 20.2669 3.11248 20.2505C1.66585 19.0705 1.04259 17.0739 1.98016 15.45L7.00908 6.73964L6.84186 6.6431C6.42184 6.4006 6.24381 5.97933 6.20713 5.61784C6.17019 5.25376 6.26109 4.87834 6.44801 4.55457L6.90116 3.76969C7.08806 3.44597 7.36771 3.17951 7.70149 3.02945C8.03294 2.88043 8.48678 2.82401 8.90681 3.06651L11.9379 4.81652L13.1392 2.73577L12.1343 2.15555C11.7516 1.93464 11.6205 1.44537 11.8414 1.06273ZM9.21138 16.1367L7.4116 15.0976C7.02896 14.8767 6.53969 15.0078 6.31878 15.3904C6.09786 15.773 6.22896 16.2623 6.6116 16.4832L8.41138 17.5223L7.70092 18.7529C7.19142 19.6353 5.7992 20.0214 4.5095 19.2768C3.21782 18.531 2.85644 17.1322 3.3658 16.25L8.39426 7.54044L12.7294 10.0433L11.9548 11.3849L10.1538 10.3451C9.77115 10.1242 9.28188 10.2553 9.06096 10.6379C8.84005 11.0206 8.97115 11.5099 9.35378 11.7308L11.1548 12.7706L10.5828 13.7613L9.89988 13.367C9.51724 13.1461 9.02797 13.2772 8.80706 13.6598C8.58614 14.0424 8.71724 14.5317 9.09988 14.7526L9.78281 15.1469L9.21138 16.1367ZM8.2868 4.56969L8.29287 4.55958L15.3699 8.64553L15.3642 8.65585L14.9111 9.44072L14.905 9.45084L7.82793 5.36489L7.83365 5.35457L8.2868 4.56969Z" fill="#333333"/>
</svg>
