<svg width="27" height="27" viewBox="0 0 27 27" fill="none" xmlns="http://www.w3.org/2000/svg">
<path fill-rule="evenodd" clip-rule="evenodd" d="M6.53359 2.69513C6.53359 2.20378 6.93779 1.79995 7.42716 1.79995H8.62412C9.11444 1.79995 9.51924 2.20474 9.51924 2.69513V8.9212C9.51924 9.36303 9.87741 9.7212 10.3192 9.7212H18.1009C18.9581 9.7212 19.6634 10.4256 19.6634 11.2838V16.7728C19.6634 17.2147 20.0216 17.5728 20.4634 17.5728H24.9519C24.9626 17.5728 24.9737 17.5764 24.9847 17.5874C24.9958 17.5986 24.9994 17.61 24.9994 17.6204V19.3994C24.9994 19.4098 24.9959 19.4212 24.9847 19.4324C24.9737 19.4434 24.9625 19.447 24.9519 19.447C23.2437 19.447 21.5433 19.4643 19.848 19.4815L19.847 19.4815C18.492 19.4953 17.1402 19.509 15.7863 19.514C15.8697 19.0523 15.9132 18.5773 15.9132 18.0928C15.9132 13.7649 12.4587 10.2444 8.15638 10.1385C8.13546 10.1368 8.11431 10.136 8.09297 10.136C8.08195 10.136 8.07098 10.1362 8.06006 10.1367C8.02561 10.1362 7.9911 10.136 7.95654 10.136C7.87014 10.136 7.78404 10.1374 7.69829 10.1401C7.30218 10.1528 6.91323 10.1945 6.53359 10.2631V2.69513ZM7.29297 11.7705C6.13881 11.8913 5.07464 12.3233 4.18641 12.9808L7.29297 16.14V11.7705ZM1.6503 17.2927C1.80294 16.0872 2.29571 14.9849 3.02883 14.0856L6.18248 17.2927H1.6503ZM8.89297 24.3804V20.0492L11.8804 23.0873C11.0312 23.7564 10.0085 24.2143 8.89297 24.3804ZM14.2628 18.8927C14.1186 20.0312 13.6711 21.0777 13.0042 21.9481L9.99975 18.8927H14.2628ZM3.01441 22.0821C2.28925 21.186 1.80193 20.0903 1.6503 18.8927H6.20382L3.01441 22.0821ZM4.16817 23.1911C5.06006 23.8562 6.1309 24.2934 7.29297 24.415V20.0663L4.16817 23.1911ZM10.0666 17.2927H14.2628C14.1223 16.1833 13.6937 15.1613 13.0549 14.3044L10.0666 17.2927ZM11.946 13.1506C11.084 12.453 10.0373 11.9754 8.89297 11.8051V16.2036L11.946 13.1506ZM8.15644 26.047C11.3853 25.9668 14.1462 23.9484 15.3156 21.1153C16.8349 21.1122 18.3489 21.0968 19.8594 21.0814L19.8633 21.0814C21.5602 21.0642 23.2529 21.047 24.9519 21.047C25.8616 21.047 26.5994 20.3055 26.5994 19.3994V17.6204C26.5994 16.7142 25.8616 15.9728 24.9519 15.9728H21.2634V11.2838C21.2634 9.54134 19.8411 8.1212 18.1009 8.1212H11.1192V2.69513C11.1192 1.32115 9.99817 0.199951 8.62412 0.199951H7.42716C6.06242 0.199951 4.9503 1.30542 4.93378 2.66443H0.928906C0.487078 2.66443 0.128906 3.0226 0.128906 3.46443C0.128906 3.90626 0.487078 4.26443 0.928906 4.26443H4.93359V10.7337C2.04252 11.9273 0 14.7783 0 18.0927C0 22.4764 3.57298 26.0495 7.95654 26.0495C7.9911 26.0495 8.0256 26.0493 8.06006 26.0488C8.07097 26.0493 8.08194 26.0495 8.09297 26.0495C8.11433 26.0495 8.1355 26.0487 8.15644 26.047ZM21.0312 23.5151C21.0313 22.4499 21.8985 21.5872 22.9608 21.5872C24.0246 21.5872 24.8888 22.4513 24.8888 23.5152C24.8888 24.5775 24.0261 25.4448 22.9608 25.4448C21.897 25.4448 21.0312 24.579 21.0312 23.5152V23.5151ZM22.9608 23.1872C22.7793 23.1872 22.6313 23.3364 22.6313 23.5152V23.5152C22.6312 23.6953 22.7806 23.8448 22.9608 23.8448C23.1395 23.8448 23.2888 23.6968 23.2888 23.5152C23.2888 23.335 23.141 23.1872 22.9608 23.1872Z" fill="#333333"/>
</svg>
