<svg xmlns="http://www.w3.org/2000/svg" viewBox="0 0 26.6 25.85"><defs><style>.cls-1{fill:#333;}</style></defs><title>Asset 3</title><g id="Layer_2" data-name="Layer 2"><g id="Layer_1-2" data-name="Layer 1"><path class="cls-1" d="M23,21.39A1.93,1.93,0,0,0,21,23.32h0A1.93,1.93,0,1,0,23,21.39Zm0,2.25a.32.32,0,0,1-.33-.32.33.33,0,0,1,.66,0A.32.32,0,0,1,23,23.64Z"/><path class="cls-1" d="M25,15.77H21.26V11.08A3.17,3.17,0,0,0,18.1,7.92h-7V2.5A2.5,2.5,0,0,0,8.62,0H7.43a2.51,2.51,0,0,0-2.5,2.46h-4a.8.8,0,1,0,0,1.6h4v6.47A8,8,0,0,0,8,25.85h.2a8,8,0,0,0,7.16-4.93l4.54,0h0c1.7,0,3.39,0,5.09,0A1.65,1.65,0,0,0,26.6,19.2V17.42A1.65,1.65,0,0,0,25,15.77ZM3,13.89l3.15,3.2H1.65A6.3,6.3,0,0,1,3,13.89Zm-1.38,4.8H6.2L3,21.88A6.33,6.33,0,0,1,1.65,18.69Zm5.64,5.53A6.35,6.35,0,0,1,4.17,23l3.12-3.12Zm0-8.28-3.1-3.16a6.25,6.25,0,0,1,3.1-1.21Zm1.6,8.24V19.85l3,3A6.35,6.35,0,0,1,8.89,24.18ZM13,21.75l-3-3.06h4.26A6.27,6.27,0,0,1,13,21.75ZM8.89,16V11.61A6.33,6.33,0,0,1,12,13Zm1.18,1.09,3-3a6.33,6.33,0,0,1,1.21,3ZM25,19.2s0,0,0,0l0,0q-2.57,0-5.1,0h0l-4.06,0a8.25,8.25,0,0,0,.12-1.42,7.94,7.94,0,0,0-7.75-8H7.7a7.48,7.48,0,0,0-1.17.12V2.5a.9.9,0,0,1,.9-.9H8.62a.9.9,0,0,1,.9.9V8.72a.8.8,0,0,0,.8.8H18.1a1.57,1.57,0,0,1,1.56,1.56v5.49a.8.8,0,0,0,.8.8H25l0,0s0,0,0,0Z"/></g></g></svg>