<svg width="26" height="19" viewBox="0 0 26 19" fill="none" xmlns="http://www.w3.org/2000/svg">
<path d="M25.2 10.1C25.2 10.1 24.9 9.89996 24.4 9.69996C22.3 6.39996 19.6 2.49996 18.3 1.49996C17.5 0.899961 16.6 0.799961 15.9 1.19996C15 1.69996 14.4 2.79996 14.4 4.19996C14.4 4.59996 14.8 4.99996 15.2 4.99996C15.6 4.99996 16 4.59996 16 4.19996C16 3.29996 16.3 2.79996 16.6 2.69996C16.8 2.59996 17.1 2.69996 17.4 2.89996C18.1 3.39996 19.8 5.69996 22 8.99996C19.8 8.49996 16.9 8.49996 14.1 10.7H11.5C8.8 8.49996 5.8 8.49996 3.6 8.89996C5.2 6.49996 7.4 3.39996 8.2 2.79996C8.5 2.59996 8.8 2.49996 9 2.59996C9.3 2.69996 9.6 3.29996 9.6 4.09996C9.6 4.59996 10 4.99996 10.4 4.99996C10.8 4.99996 11.2 4.59996 11.2 4.19996C11.2 2.79996 10.6 1.69996 9.7 1.19996C9 0.799961 8.1 0.999961 7.3 1.49996C5.7 2.69996 2 8.49996 1.2 9.69996C0.7 9.89996 0.4 10.1 0.4 10.1C0 10.4 -0.1 10.8 0.1 11.2C0.2 11.4 0.5 11.6 0.7 11.6C0.7 13 1 15.5 2.5 17.1C3.5 18.1 4.7 18.7 6.3 18.7C8 18.7 9.3 18.2 10.3 17.1C11.7 15.6 11.9 13.5 12 12.3H13.6C13.6 13.5 13.9 15.6 15.3 17.1C16.3 18.2 17.6 18.7 19.3 18.7C20.8 18.7 22.1 18.2 23.1 17.1C24.6 15.5 24.9 13 24.9 11.6C25.2 11.6 25.4 11.5 25.5 11.2C25.7 10.8 25.6 10.4 25.2 10.1ZM9.1 15.9C8.5 16.7 7.6 17 6.4 17C5.3 17 4.5 16.7 3.8 16C2.4 14.5 2.4 11.8 2.4 11C4.1 10.3 7.4 9.49996 10.4 11.9C10.4 12.8 10.2 14.8 9.1 15.9ZM21.8 16C21.2 16.7 20.3 17 19.2 17C18 17 17.1 16.6 16.4 15.9C15.2 14.6 15.1 12.5 15.1 11.8C18.1 9.49996 21.5 10.3 23.1 11C23.3 11.8 23.2 14.5 21.8 16Z" fill="#333333"/>
</svg>
