<svg width="23" height="26" viewBox="0 0 23 26" fill="none" xmlns="http://www.w3.org/2000/svg">
<path fill-rule="evenodd" clip-rule="evenodd" d="M21.4 2.30005C21.7 2.30005 21.9 2.5 22.1 2.69995C22.2465 2.84656 22.3394 2.99304 22.4572 3.17883C22.5002 3.2467 22.5465 3.31982 22.6 3.40002V9.5C22.5 13 21.4 16.3 19.5 19.1C17.7 21.7 15.2 23.8 12.4 25.1C12.3312 25.1172 12.2653 25.1344 12.2013 25.1511C11.8937 25.2314 11.6312 25.3 11.3 25.3C10.9 25.3 10.5 25.3 10.2 25.1C7.29999 23.8 4.90002 21.7 3.09998 19.1C1.09998 16.2 0.0999756 12.9 0 9.5V3.40002C0 3.09998 0.0999756 2.90002 0.299988 2.69995C0.400024 2.40002 0.700012 2.30005 0.900024 2.19995L10.5 0H10.7H11.7H11.9L21.4 2.30005ZM18 18.2C19.8 15.6 20.7 12.6 20.8 9.5V3.69995L11.6 1.59998H10.8L1.59998 3.69995V9.5C1.70001 12.6 2.59998 15.6 4.40002 18.2C6 20.5 8.20001 22.4 10.8 23.6C11.1 23.7 11.4 23.7 11.6 23.6C14.2 22.4 16.4 20.6 18 18.2ZM8.39996 6.30005C9.20001 6.30005 9.89996 6.5 10.6 7C11 7.20007 11.4 7.20007 11.8 7C12.5 6.5 13.2 6.30005 14 6.30005C15 6.30005 15.9 6.70007 16.6 7.40002C17.3 8.1001 17.6 9 17.6 10C17.6 12.4 16 14.8 12.8 17.3C12.3 17.6001 11.8 17.8 11.2 17.8C10.6 17.8 10.1 17.7001 9.59998 17.3C6.39996 14.8 4.79999 12.4 4.79999 10C4.79999 9 5.09998 8.1001 5.79999 7.40002C6.5 6.70007 7.39996 6.30005 8.39996 6.30005ZM14 7.90002C13.6 7.90002 13.1 8 12.8 8.30005C11.8 8.90002 10.6 8.90002 9.70001 8.30005C9.29999 8 8.79999 7.90002 8.39996 7.90002C7.89996 7.90002 7.39996 8.1001 7 8.5C6.59998 8.90002 6.39996 9.5 6.39996 10C6.39996 11.9 7.79999 13.9 10.6 16.1001C10.9 16.4 11.4 16.4 11.8 16.1001C14.6 13.9 16 11.9 16 10C16 9.40002 15.8 8.90002 15.4 8.5C15.1 8.1001 14.5 7.90002 14 7.90002Z" fill="#333333"/>
</svg>
