<svg width="24" height="24" viewBox="0 0 24 24" fill="none" xmlns="http://www.w3.org/2000/svg">
<path d="M21.9235 12.2281C21.8839 12.1489 21.8632 12.0616 21.8632 11.9731C21.8632 11.8846 21.8839 11.7973 21.9235 11.7181L22.8135 9.9081C23.0755 9.39349 23.1226 8.79593 22.9445 8.24661C22.7664 7.69728 22.3776 7.24106 21.8635 6.9781L20.0835 5.9781C20.007 5.93644 19.9411 5.87783 19.8909 5.80676C19.8406 5.73569 19.8073 5.65405 19.7935 5.5681L19.4435 3.5681C19.3254 3.03232 19.0097 2.56074 18.5592 2.24749C18.1088 1.93423 17.5568 1.80233 17.0135 1.8781L15.0135 2.1581C14.9202 2.1736 14.8245 2.16523 14.7353 2.13375C14.6461 2.10228 14.5664 2.04873 14.5035 1.9781L13.0135 0.598102C12.6085 0.214069 12.0716 0 11.5135 0C10.9553 0 10.4185 0.214069 10.0135 0.598102L8.55346 1.9781C8.49117 2.03992 8.41544 2.08653 8.33219 2.11428C8.24893 2.14203 8.16039 2.15019 8.07346 2.1381L6.07346 1.8581C5.50689 1.77723 4.93117 1.92136 4.46953 2.25965C4.00789 2.59793 3.69702 3.10349 3.60346 3.6681L3.26346 5.6681C3.24784 5.75473 3.21272 5.83666 3.16074 5.9077C3.10876 5.97873 3.0413 6.03701 2.96346 6.0781L1.18346 6.9781C0.67699 7.24084 0.294374 7.69247 0.118444 8.23524C-0.0574857 8.778 -0.0125725 9.36821 0.24346 9.8781L1.12346 11.6881C1.16306 11.7673 1.18368 11.8546 1.18368 11.9431C1.18368 12.0316 1.16306 12.1189 1.12346 12.1981L0.24346 14.0381C0.111795 14.2928 0.0316637 14.571 0.007656 14.8567C-0.0163517 15.1424 0.0162355 15.43 0.103552 15.7031C0.190868 15.9762 0.331197 16.2294 0.516505 16.4482C0.701812 16.667 0.928457 16.847 1.18346 16.9781L3.01346 17.8781C3.09041 17.9203 3.15716 17.9789 3.209 18.0498C3.26083 18.1206 3.29649 18.202 3.31346 18.2881L3.65346 20.2881C3.7429 20.7958 4.00856 21.2556 4.40366 21.5867C4.79876 21.9178 5.29798 22.0989 5.81346 22.0981H6.12346L8.12346 21.8181C8.20962 21.804 8.2979 21.8101 8.38124 21.8362C8.46459 21.8622 8.54069 21.9074 8.60346 21.9681L10.0135 23.3381C10.4194 23.7358 10.9652 23.9584 11.5335 23.9581C12.087 23.9442 12.6152 23.7229 13.0135 23.3381L14.5035 21.9781C14.5658 21.9167 14.6418 21.8711 14.7253 21.845C14.8088 21.8189 14.8973 21.8131 14.9835 21.8281L16.9835 22.1081C17.549 22.1918 18.1247 22.0501 18.5867 21.7134C19.0487 21.3767 19.36 20.8721 19.4535 20.3081L19.8035 18.3081C19.8187 18.2226 19.8525 18.1416 19.9027 18.0707C19.9528 17.9998 20.0179 17.9409 20.0935 17.8981L21.8635 16.9781C22.3698 16.7152 22.7529 16.2642 22.9305 15.722C23.1081 15.1799 23.0661 14.5897 22.8135 14.0781L21.9235 12.2281ZM1.69346 14.7481L2.57346 12.9781C2.72161 12.678 2.79868 12.3478 2.79868 12.0131C2.79868 11.6784 2.72161 11.3482 2.57346 11.0481L1.69346 9.1981C1.65919 9.13194 1.63847 9.05961 1.63252 8.98533C1.62656 8.91106 1.63548 8.83635 1.65876 8.76557C1.68205 8.69479 1.71922 8.62937 1.76811 8.57314C1.81699 8.51691 1.87661 8.471 1.94346 8.4381L3.72346 7.4381C4.00758 7.2928 4.25615 7.08663 4.45147 6.83427C4.64679 6.58191 4.78405 6.28958 4.85346 5.9781L5.20346 3.9781C5.22808 3.83192 5.30868 3.70108 5.42816 3.61333C5.54764 3.52558 5.69661 3.48784 5.84346 3.5081L7.84346 3.7881C8.17334 3.83775 8.51023 3.81032 8.82773 3.70796C9.14523 3.60559 9.4347 3.43108 9.67346 3.1981L11.1235 1.7881C11.2324 1.68761 11.3752 1.63181 11.5235 1.63181C11.6717 1.63181 11.8145 1.68761 11.9235 1.7881L13.3735 3.1981C13.6127 3.43044 13.9022 3.60453 14.2195 3.70685C14.5369 3.80917 14.8736 3.83698 15.2035 3.7881L17.2035 3.5081C17.2764 3.49674 17.3508 3.4999 17.4225 3.5174C17.4942 3.53489 17.5617 3.56638 17.6212 3.61006C17.6806 3.65374 17.7309 3.70874 17.769 3.7719C17.8072 3.83506 17.8325 3.90514 17.8435 3.9781L18.1935 5.9781C18.2493 6.30878 18.3814 6.6219 18.5793 6.89268C18.7772 7.16345 19.0354 7.38442 19.3335 7.5381L21.1135 8.5381C21.2448 8.6083 21.3435 8.72714 21.3884 8.86919C21.4332 9.01123 21.4207 9.16518 21.3535 9.2981L20.4735 10.9781C20.3253 11.2782 20.2482 11.6084 20.2482 11.9431C20.2482 12.2778 20.3253 12.608 20.4735 12.9081L21.3535 14.7181C21.4207 14.851 21.4332 15.005 21.3884 15.147C21.3435 15.2891 21.2448 15.4079 21.1135 15.4781L19.3335 16.4181C19.0363 16.573 18.7789 16.7944 18.5812 17.0649C18.3835 17.3355 18.2508 17.6479 18.1935 17.9781L17.8435 19.9781C17.8166 20.1231 17.7354 20.2525 17.6165 20.3398C17.4976 20.4271 17.3499 20.4658 17.2035 20.4481L15.2035 20.1581C14.8728 20.1113 14.5359 20.141 14.2186 20.2451C13.9013 20.3491 13.6122 20.5246 13.3735 20.7581L11.9235 22.1581C11.8168 22.2631 11.6731 22.322 11.5235 22.322C11.3738 22.322 11.2301 22.2631 11.1235 22.1581L9.67346 20.7781C9.26753 20.3804 8.72177 20.1578 8.15346 20.1581H7.84346L5.84346 20.4481C5.69661 20.4684 5.54764 20.4306 5.42816 20.3429C5.30868 20.2551 5.22808 20.1243 5.20346 19.9781L4.85346 17.9781C4.79648 17.6491 4.66504 17.3376 4.46919 17.0672C4.27334 16.7968 4.01826 16.5748 3.72346 16.4181L1.94346 15.4781C1.81786 15.4099 1.72246 15.297 1.67616 15.1618C1.62985 15.0266 1.63603 14.879 1.69346 14.7481V14.7481Z" fill="#333333"/>
<path d="M6.20376 16.488C6.20207 16.5935 6.22155 16.6984 6.26105 16.7963C6.30055 16.8942 6.35928 16.9832 6.43376 17.058C6.50906 17.1339 6.59863 17.1941 6.69732 17.2352C6.796 17.2763 6.90185 17.2975 7.00876 17.2975C7.11566 17.2975 7.22151 17.2763 7.3202 17.2352C7.41889 17.1941 7.50846 17.1339 7.58376 17.058L16.5838 8.05797C16.7402 7.91078 16.8318 7.70745 16.8384 7.49272C16.845 7.27799 16.766 7.06945 16.6188 6.91297C16.4716 6.7565 16.2682 6.6649 16.0535 6.65834C15.8388 6.65177 15.6302 6.73078 15.4738 6.87797L6.47376 15.878C6.38699 15.9538 6.31786 16.0477 6.27121 16.1531C6.22457 16.2585 6.20155 16.3728 6.20376 16.488V16.488Z" fill="#333333"/>
<path d="M8.78389 10.978C9.30559 10.9799 9.81619 10.8273 10.2512 10.5393C10.6862 10.2513 11.0261 9.84083 11.2281 9.35977C11.43 8.87872 11.4848 8.34862 11.3857 7.83641C11.2866 7.3242 11.0379 6.85285 10.6711 6.48185C10.3043 6.11086 9.83581 5.85687 9.32476 5.75194C8.81371 5.64702 8.28302 5.69586 7.79971 5.89232C7.3164 6.08877 6.90213 6.42402 6.60921 6.85574C6.31628 7.28745 6.15784 7.79628 6.15388 8.31798C6.15125 8.66551 6.21726 9.01014 6.34813 9.3321C6.47899 9.65406 6.67214 9.94701 6.91649 10.1941C7.16084 10.4413 7.45158 10.6377 7.77204 10.7722C8.09249 10.9068 8.43635 10.9767 8.78389 10.978V10.978ZM7.78388 8.33798C7.78388 8.07276 7.88924 7.81841 8.07678 7.63087C8.26431 7.44334 8.51867 7.33798 8.78389 7.33798C9.0491 7.33798 9.30346 7.44334 9.49099 7.63087C9.67853 7.81841 9.78389 8.07276 9.78389 8.33798C9.78389 8.6032 9.67853 8.85755 9.49099 9.04509C9.30346 9.23262 9.0491 9.33798 8.78389 9.33798C8.51867 9.33798 8.26431 9.23262 8.07678 9.04509C7.88924 8.85755 7.78388 8.6032 7.78388 8.33798Z" fill="#333333"/>
<path d="M14.2638 12.978C13.7408 12.9761 13.229 13.1295 12.7933 13.4188C12.3576 13.7081 12.0177 14.1203 11.8166 14.6031C11.6156 15.0859 11.5625 15.6176 11.664 16.1306C11.7656 16.6437 12.0172 17.115 12.387 17.4848C12.7568 17.8546 13.2281 18.1062 13.7412 18.2078C14.2542 18.3093 14.7859 18.2562 15.2687 18.0552C15.7515 17.8541 16.1637 17.5142 16.453 17.0785C16.7423 16.6428 16.8957 16.131 16.8938 15.608C16.8911 14.9113 16.6132 14.2439 16.1205 13.7513C15.6279 13.2586 14.9605 12.9807 14.2638 12.978ZM15.2638 15.608C15.2638 15.8058 15.2051 15.9992 15.0952 16.1636C14.9853 16.3281 14.8292 16.4562 14.6464 16.5319C14.4637 16.6076 14.2626 16.6274 14.0687 16.5888C13.8747 16.5502 13.6965 16.455 13.5566 16.3152C13.4168 16.1753 13.3216 15.9971 13.283 15.8031C13.2444 15.6092 13.2642 15.4081 13.3399 15.2254C13.4156 15.0426 13.5437 14.8865 13.7082 14.7766C13.8726 14.6667 14.066 14.608 14.2638 14.608C14.3968 14.6067 14.5287 14.6319 14.6518 14.6822C14.775 14.7325 14.8869 14.8068 14.9809 14.9009C15.075 14.9949 15.1493 15.1068 15.1996 15.23C15.2499 15.3531 15.2751 15.485 15.2738 15.618L15.2638 15.608Z" fill="#333333"/>
</svg>
