<svg width="31" height="20" viewBox="0 0 31 20" fill="none" xmlns="http://www.w3.org/2000/svg">
<path d="M23.8811 13.1435C23.2876 11.8886 21.1641 10.1467 19.1124 8.46358C17.9681 7.52553 16.8869 6.63864 16.1975 5.93962C16.0249 5.76326 15.7666 5.70701 15.5385 5.7901C15.1138 5.94603 14.8516 6.06614 14.645 6.15941C14.33 6.30252 14.2241 6.3511 13.7994 6.39453C13.6116 6.4137 13.4427 6.51596 13.3381 6.67441C12.4471 8.0252 11.5246 7.91018 10.9084 7.70063C10.7118 7.6342 10.6765 7.54854 10.6576 7.46677C10.5253 6.90576 11.1895 5.59966 12.0501 4.72679C14.098 2.64882 15.1541 2.12867 17.3847 3.13956C19.9152 4.28715 22.4508 5.1856 22.476 5.19452C22.8075 5.3108 23.1641 5.13444 23.2788 4.80089C23.3922 4.46734 23.2195 4.10312 22.8906 3.98685C22.8654 3.97792 20.3802 3.09738 17.9001 1.97148C15.0104 0.661541 13.425 1.52417 11.1604 3.82199C10.2984 4.69612 9.12762 6.4648 9.43008 7.76198C9.55986 8.31406 9.94301 8.72303 10.5126 8.9134C11.9404 9.39138 13.2435 8.93383 14.2139 7.62779C14.6146 7.56519 14.8327 7.47318 15.1603 7.32365C15.2787 7.26998 15.4174 7.20738 15.6014 7.13196C16.3223 7.81823 17.2951 8.61693 18.3197 9.45656C20.1722 10.976 22.273 12.6988 22.7456 13.6956C22.9788 14.1876 22.728 14.5084 22.5578 14.6553C22.3083 14.8726 21.9668 14.9416 21.7815 14.8099C21.5774 14.6681 21.3115 14.6592 21.101 14.7869C20.8893 14.9147 20.7709 15.1562 20.7973 15.4042C20.8402 15.8106 20.4734 16.0432 20.3146 16.1237C19.9114 16.3307 19.4905 16.295 19.3329 16.1467C19.1565 15.9806 18.9032 15.932 18.6789 16.0164C18.4546 16.102 18.2982 16.3116 18.2756 16.5544C18.2378 16.9735 17.9315 17.3761 17.532 17.5333C17.3392 17.6074 17.0594 17.6521 16.8087 17.4195C16.6524 17.2764 16.4356 17.2214 16.2328 17.2712C16.0274 17.3223 15.8622 17.4732 15.7904 17.6738C15.7665 17.7377 15.7123 17.8911 15.1225 17.8911C14.7028 17.8911 13.9479 17.6035 13.5787 17.3556C13.1364 17.0604 10.3626 14.962 7.96696 12.9274C7.63048 12.6399 7.04825 12.0239 6.53408 11.4795C6.07786 10.9964 5.66074 10.5581 5.44648 10.3741C5.17806 10.144 4.78109 10.1785 4.55803 10.4495C4.33373 10.7191 4.36645 11.123 4.6324 11.3504C4.82775 11.5179 5.20582 11.9229 5.62294 12.3638C6.18502 12.9594 6.76594 13.5754 7.15665 13.9076C9.50321 15.9 12.3236 18.0508 12.8856 18.4252C13.3494 18.7345 14.3487 19.169 15.1225 19.169C15.7438 19.169 16.2215 19.0246 16.5529 18.7422C16.9965 18.9173 17.5006 18.9186 17.9857 18.7269C18.5592 18.5019 19.0305 18.0483 19.2976 17.4988C19.7942 17.6061 20.3626 17.5307 20.8792 17.2675C21.3846 17.0093 21.75 16.6144 21.9315 16.1531C22.4331 16.1799 22.9497 15.9997 23.3769 15.6278C24.1004 15.0004 24.2995 14.024 23.8811 13.1435Z" fill="#333333"/>
<path d="M12.6034 2.55542H6.93238C6.58456 2.55542 6.30225 2.8417 6.30225 3.19442C6.30225 3.54714 6.58456 3.83342 6.93238 3.83342H12.6034C12.9512 3.83342 13.2335 3.54714 13.2335 3.19442C13.2335 2.8417 12.9512 2.55542 12.6034 2.55542Z" fill="#333333"/>
<path d="M25.727 11.7836C25.5316 11.4909 25.141 11.4104 24.8524 11.6098L23.01 12.8647C22.7214 13.0615 22.6445 13.459 22.8386 13.7516C22.9608 13.9344 23.16 14.0341 23.3629 14.0341C23.4826 14.0341 23.6049 13.9996 23.7133 13.9255L25.5557 12.6705C25.8442 12.4737 25.9211 12.0763 25.727 11.7836Z" fill="#333333"/>
<path d="M21.8155 14.8332C21.3643 14.4728 19.3467 12.3783 18.0991 11.0594C17.8583 10.8038 17.4589 10.7949 17.2081 11.0402C16.956 11.2844 16.9484 11.6894 17.1891 11.9438C17.513 12.2863 20.3699 15.3061 21.0341 15.8378C21.1488 15.9298 21.2874 15.9745 21.4235 15.9745C21.6088 15.9745 21.794 15.8902 21.92 15.7304C22.1356 15.4543 22.089 15.0518 21.8155 14.8332Z" fill="#333333"/>
<path d="M19.2979 16.1146C18.543 15.5024 16.6464 13.459 16.2178 12.9862C15.9809 12.7255 15.5839 12.7101 15.3268 12.9478C15.071 13.1868 15.0534 13.5919 15.289 13.8514C15.3117 13.8756 17.5751 16.3536 18.5102 17.1127C18.6261 17.206 18.766 17.252 18.9034 17.252C19.0874 17.252 19.2713 17.1689 19.3961 17.0131C19.6129 16.737 19.5688 16.3344 19.2979 16.1146Z" fill="#333333"/>
<path d="M16.7902 17.4013C15.8916 16.6332 14.053 14.6485 13.6938 14.2587C13.4556 14.0006 13.0561 13.9865 12.8028 14.2281C12.5483 14.4696 12.5356 14.8734 12.7726 15.1316C13.2893 15.6926 15.0485 17.5841 15.9773 18.3789C16.0958 18.4799 16.2394 18.5297 16.3831 18.5297C16.562 18.5297 16.741 18.4518 16.8658 18.3023C17.0901 18.0313 17.0561 17.6287 16.7902 17.4013Z" fill="#333333"/>
<path d="M7.36476 1.45266C6.28473 0.414929 1.96595 0.0788046 0.667939 0.000868654C0.489007 -0.00805713 0.323898 0.0519676 0.197895 0.173394C0.0718329 0.293503 0 0.462194 0 0.638554V12.1402C0 12.493 0.28231 12.7792 0.630133 12.7792H4.41081C4.68302 12.7792 4.92498 12.6016 5.0094 12.3383C5.10138 12.0521 7.27278 5.29422 7.55882 1.97149C7.57524 1.77722 7.50465 1.58553 7.36476 1.45266ZM3.95081 11.5013H1.26021V1.32356C3.28541 1.48584 5.47064 1.83856 6.26458 2.22962C5.93064 5.02836 4.41961 10.0009 3.95081 11.5013Z" fill="#333333"/>
<path d="M29.6153 1.27759C24.6676 1.27759 21.9229 2.56194 21.8082 2.61562C21.6444 2.69355 21.5221 2.83798 21.4717 3.01308C21.4213 3.18819 21.4465 3.37605 21.541 3.53192C22.3198 4.80351 24.7584 11.8655 25.2272 13.5882C25.3028 13.8655 25.5511 14.0572 25.8346 14.0572H29.6153C29.9631 14.0572 30.2454 13.7709 30.2454 13.4182V1.91653C30.2454 1.56255 29.9631 1.27759 29.6153 1.27759ZM28.9852 12.7793H26.306C25.7086 10.8061 23.9443 5.66099 22.9601 3.53449C23.9216 3.20352 25.9872 2.63479 28.9852 2.56326V12.7793Z" fill="#333333"/>
</svg>
