<svg width="18" height="27" viewBox="0 0 18 27" fill="none" xmlns="http://www.w3.org/2000/svg">
<path d="M8.86231 0C6.51188 0 4.25772 0.933705 2.59571 2.59571C0.933705 4.25772 0 6.51188 0 8.86231C0 10.8231 1.10779 13.792 3.61139 18.201C5.29523 21.2142 6.93476 23.7399 7.0123 23.8396L8.21979 25.6675C8.2928 25.7767 8.39168 25.8663 8.50764 25.9281C8.6236 25.99 8.75304 26.0222 8.88446 26.022C9.0157 26.0212 9.1448 25.9886 9.2606 25.9268C9.3764 25.8651 9.47543 25.776 9.54914 25.6675L10.7455 23.8618C10.7455 23.8618 12.4405 21.3139 14.1575 18.2231C16.6168 13.8141 17.7246 10.8452 17.7246 8.86231C17.7246 6.51188 16.7909 4.25772 15.1289 2.59571C13.4669 0.933705 11.2127 0 8.86231 0V0ZM12.7506 17.4477C11.1554 20.2947 9.58237 22.7207 9.42728 22.9866L8.86231 23.8064L8.31949 22.9866C8.25303 22.8869 6.60242 20.3722 4.99613 17.4477C2.73624 13.3932 1.58414 10.5129 1.58414 8.86231C1.54587 7.88043 1.70621 6.90092 2.05557 5.98249C2.40492 5.06407 2.93609 4.22562 3.61725 3.51739C4.29841 2.80917 5.11553 2.24575 6.01966 1.86089C6.92378 1.47603 7.8963 1.27766 8.87893 1.27766C9.86155 1.27766 10.8341 1.47603 11.7382 1.86089C12.6423 2.24575 13.4594 2.80917 14.1406 3.51739C14.8218 4.22562 15.3529 5.06407 15.7023 5.98249C16.0516 6.90092 16.212 7.88043 16.1737 8.86231C16.1737 10.5129 15.0327 13.4042 12.7728 17.4477H12.7506Z" fill="#333333"/>
<path d="M8.8622 3.84401C7.87862 3.8484 6.91833 4.14366 6.10219 4.69262C5.28606 5.24158 4.65055 6.01971 4.27568 6.92905C3.90081 7.8384 3.80332 8.83832 3.99548 9.80295C4.18765 10.7676 4.66088 11.6538 5.35561 12.3501C6.05034 13.0463 6.93552 13.5215 7.89972 13.7158C8.86392 13.9101 9.86406 13.8148 10.7742 13.442C11.6844 13.0691 12.4639 12.4353 13.0147 11.6204C13.5655 10.8055 13.8628 9.84585 13.8694 8.86229C13.8723 8.20339 13.7449 7.55043 13.4944 6.94098C13.244 6.33154 12.8754 5.77766 12.41 5.31123C11.9446 4.8448 11.3916 4.47504 10.7827 4.22323C10.1738 3.97142 9.5211 3.84254 8.8622 3.84401V3.84401ZM12.2853 8.86229C12.2787 9.53252 12.0742 10.1859 11.6975 10.7403C11.3209 11.2947 10.7887 11.7254 10.168 11.9784C9.54734 12.2314 8.86573 12.2953 8.20883 12.1621C7.55192 12.0289 6.94901 11.7046 6.47583 11.2299C6.00264 10.7552 5.68028 10.1512 5.54924 9.4939C5.41819 8.83657 5.48431 8.15516 5.73927 7.53529C5.99424 6.91541 6.4267 6.38469 6.98231 6.00979C7.53793 5.6349 8.19194 5.43254 8.8622 5.42814C9.31307 5.42667 9.75976 5.51457 10.1765 5.68677C10.5931 5.85897 10.9716 6.11205 11.2899 6.43138C11.6082 6.7507 11.86 7.12995 12.0309 7.5472C12.2017 7.96445 12.2882 8.41143 12.2853 8.86229Z" fill="#333333"/>
</svg>
