<svg width="26" height="26" viewBox="0 0 26 26" fill="none" xmlns="http://www.w3.org/2000/svg">
<path d="M25.7 8.60017C25.7 8.50017 25.7 8.50017 25.6 8.40017C24.9 6.90017 22.5 1.80017 20.8 1.20017C20 0.900172 19.3 1.00017 18.8 1.30017C18.2 1.70017 18 2.40017 18 3.50017C18 3.90017 18.2 4.30017 18.5 4.60017C18.9 4.90017 19.6 4.90017 20.1 4.80017C20.2 5.20017 20.2 5.50017 20.3 5.90017C20.3 7.00017 20.4 8.00017 20.8 9.00017C19.8 9.40017 19 10.2002 18.5 11.2002C17.6 11.3002 16.7 11.6002 15.9 12.1002C15.4 11.5002 15.5 11.2002 15.9 10.1002C16 9.90017 16.1 9.60017 16.2 9.30017C16.7 7.70017 16.3 6.60017 15.9 6.00017C15.4 5.20017 14.5 4.70017 13.5 4.70017C12.5 4.70017 11.5 5.20017 11 6.00017C10.5 6.60017 10.1 7.70017 10.6 9.30017C10.7 9.60017 10.8 9.90017 10.9 10.1002C11.3 11.2002 11.4 11.4002 10.9 12.0002C10.1 11.5002 9.20003 11.2002 8.30003 11.1002C7.80003 10.2002 7.00003 9.40017 6.00003 9.00017C6.40003 8.00017 6.50003 7.00017 6.50003 5.90017C6.50003 5.50017 6.60003 5.20017 6.70003 4.80017C7.20003 4.90017 7.90003 4.90017 8.30003 4.60017C8.70003 4.40017 8.80003 3.90017 8.80003 3.50017C8.80003 2.40017 8.50003 1.70017 8.00003 1.30017C7.50003 0.900172 6.80003 0.900172 6.00003 1.20017C4.20003 1.70017 2.00003 6.40017 1.10003 8.40017C1.00003 8.40017 1.00003 8.50017 1.00003 8.60017C0.900028 9.00017 0.900028 11.3002 7.10003 16.0002C7.40003 17.0002 8.90003 22.3002 8.20003 24.5002C8.10003 24.7002 8.20003 25.0002 8.30003 25.2002C8.40003 25.4002 8.70003 25.5002 8.90003 25.5002H17.7C17.9 25.5002 18.2 25.4002 18.3 25.2002C18.4 25.0002 18.5 24.8002 18.4 24.5002C17.7 22.2002 19.2 17.0002 19.5 16.0002C25.8 11.3002 25.8 9.00017 25.7 8.60017ZM18.2 15.3002C18.2 15.4002 16.5 20.7002 16.8 24.0002H9.80003C10.1 20.9002 8.60003 15.9002 8.40003 15.3002C8.40003 15.1002 8.30003 15.0002 8.10003 14.9002C3.10003 11.2002 2.50003 9.20017 2.40003 8.80017C3.70003 6.00017 5.50003 2.80017 6.30003 2.60017C6.50003 2.50017 6.80003 2.50017 6.90003 2.60017C6.90003 2.60017 7.10003 2.80017 7.10003 3.40017C6.90003 3.40017 6.60003 3.40017 6.20003 3.20017C6.00003 3.00017 5.60003 3.20017 5.50003 3.60017C5.20003 4.30017 5.00003 5.10017 5.00003 5.90017C5.00003 8.00017 4.40003 9.00017 4.30003 9.10017C4.20003 9.30017 4.20003 9.50017 4.30003 9.80017C4.40003 10.0002 4.60003 10.2002 4.80003 10.2002C6.70003 10.6002 7.00003 12.0002 7.00003 12.0002C7.10003 12.4002 7.40003 12.6002 7.80003 12.6002C8.80003 12.6002 9.70003 12.9002 10.4 13.6002C10.5 13.8002 10.7 13.8002 10.9 13.8002C11.1 13.8002 11.3 13.7002 11.5 13.6002C13.1 12.0002 13 11.3002 12.4 9.60017V9.50017C12.3 9.30017 12.2 9.10017 12.2 8.80017C11.9 8.00017 12 7.30017 12.3 6.80017C12.8 6.00017 14.1 6.00017 14.6 6.80017C15 7.30017 15 8.00017 14.7 8.80017C14.6 9.10017 14.5 9.30017 14.4 9.60017C13.8 11.3002 13.7 12.0002 15.3 13.6002C15.4 13.7002 15.6 13.8002 15.8 13.8002C16 13.8002 16.2 13.7002 16.3 13.6002C17 12.9002 18 12.6002 19 12.6002C19.4 12.6002 19.7 12.3002 19.7 12.0002C19.7 11.9002 20 10.6002 21.9 10.2002C22.1 10.2002 22.4 10.0002 22.4 9.80017C22.5 9.60017 22.5 9.30017 22.3 9.10017C22.3 9.10017 21.6 8.00017 21.6 5.90017C21.6 5.10017 21.4 4.40017 21.1 3.60017C21 3.20017 20.5 3.00017 20.2 3.20017C19.9 3.30017 19.5 3.40017 19.3 3.40017C19.3 2.70017 19.5 2.60017 19.4 2.60017C19.6 2.50017 19.9 2.50017 20.1 2.60017C20.8 2.80017 22.7 6.00017 24 8.80017C23.9 9.20017 23.3 11.1002 18.3 14.9002C18.4 15.0002 18.3 15.1002 18.2 15.3002Z" fill="#333333"/>
</svg>
