<svg width="21" height="26" viewBox="0 0 21 26" fill="none" xmlns="http://www.w3.org/2000/svg">
<path fill-rule="evenodd" clip-rule="evenodd" d="M20.6 13.4C20.5 13.1 20.2 12.7 19.7 12C19.4434 11.6578 19.1136 11.1694 18.8984 10.8475L18.8 10.7C18.8 10.6586 18.8171 10.5829 18.8373 10.4941C18.8521 10.429 18.8684 10.3567 18.8807 10.2859C18.8921 10.2205 18.9 10.1562 18.9 10.1C18.9361 9.88354 18.9852 9.66711 19.0332 9.45544C19.1183 9.0802 19.2 8.71973 19.2 8.40002C19.2 4.30005 16.7 0 9.59998 0C2.59998 0 0 5.19995 0 8.40002C0 11 0.700012 13.4 1.79999 14.6C2.70001 15.5 3.20001 16.1 3.20001 17.3C3.20001 18 3 18.7 2.59998 19.2C2.5 19.4 2.40002 19.6 2.40002 19.8C2.40002 20 2.59998 20.2 2.70001 20.3L10.2 25.4C10.3 25.5 10.5 25.5 10.6 25.5H10.7H11C11.0458 25.5 11.1125 25.479 11.1812 25.4467C11.2623 25.4084 11.3458 25.3542 11.4 25.3C11.5 25.2 11.6 25.1 11.6 25C12.4 23 13.1 21.7 13.5 21.2C13.6458 21.2485 13.7915 21.2971 13.9487 21.3457C14.1151 21.3972 14.2944 21.4486 14.5 21.5C14.7001 21.55 14.9003 21.6063 15.1004 21.6626C15.7003 21.8313 16.3001 22 16.9 22C18.5 22 18.7 20.1 18.8 18.7C18.8451 18.4746 18.8699 18.2493 18.8926 18.0422C18.9203 17.7899 18.9451 17.5648 19 17.4L19.1 17.2C19.1876 16.8933 19.2753 16.6058 19.3545 16.3459C19.4561 16.0127 19.5438 15.7247 19.6 15.5C20.1 15.4 20.5 15.2 20.7 14.8C21 14.3 20.8 13.8 20.6 13.4ZM18.8 14C18.4 14 18.1 14.4 18.1 14.8C18.1 15.2 17.9 15.8 17.6 16.7L17.5 17C17.4624 17.1504 17.4248 17.3291 17.3872 17.5254C17.3248 17.8512 17.2624 18.2256 17.2 18.6C17.1588 18.8059 17.1176 19.1307 17.0764 19.4554C17.0176 19.9189 16.9588 20.3824 16.9 20.5C16.3 20.5 15.6 20.3 15 20.1L14.9989 20.0996C14.3993 19.8998 13.7997 19.7 13.3 19.7C12.8 19.7 12.3 19.7 10.5 23.7L4.29999 19.5C4.59998 18.8 4.79999 18.1 4.79999 17.3C4.79999 15.5243 3.82678 14.4299 3.03253 13.5366L3 13.5C2.29999 12.8 1.59998 10.9 1.59998 8.40002C1.59998 5.80005 3.79999 1.59998 9.59998 1.59998C16.8 1.59998 17.6 6.40002 17.6 8.40002C17.6 8.80005 17.5 9.30005 17.4 9.80005C17.3456 10.0718 17.2913 10.2844 17.253 10.4541C17.2208 10.5966 17.2 10.7087 17.2 10.8C17.2 11.2 17.4 11.6 18.4 13C18.4471 13.0706 18.4997 13.1522 18.5552 13.2385C18.6613 13.4033 18.7781 13.5847 18.8875 13.7373C18.9641 13.8442 19.037 13.937 19.1 14H18.8ZM7.5 2.40002C5.5 2.79993 4.20001 3.69995 3.5 5.09998C2.39758 7.38965 3.45258 10.2546 3.79877 11.1946C3.86078 11.363 3.90002 11.4696 3.90002 11.5C4.00006 11.65 4.1001 11.8251 4.20013 12.0002L4.20142 12.0024C4.30096 12.1766 4.40045 12.3507 4.5 12.5C4.59998 12.75 4.72498 12.975 4.84998 13.2L4.85071 13.201C4.97546 13.4258 5.10016 13.6505 5.20001 13.9C5.20001 14 5.20001 14.2 5.29999 14.3C5.40002 14.5 5.5 14.7 5.70001 14.9C5.90002 15.1 6.10004 15.2 6.29999 15.3C6.5 15.4 6.60004 15.4 6.79999 15.4H6.90002C8.16284 15.4 8.76514 13.8903 9.16522 12.8872L9.20001 12.8V12.7C9.29999 12.4 9.79999 11.8 12.5 11.6C14.4 11.4 15.4 10.6 15.8 10C16.4 9.19995 16.6 8.09998 16.4 7C15.4 2.5 10.5 1.79993 7.5 2.40002ZM14.5 9.09998C14.1 9.59998 13.3 10 12.3 10.1C9.60004 10.2999 8.10004 11 7.60004 12.2V12.3C7.20001 13.4 6.90002 13.7 6.79999 13.8C6.79999 13.7 6.79999 13.6 6.70001 13.5C6.45782 12.9348 6.15045 12.4349 5.88312 12.0001C5.81934 11.8964 5.75781 11.7963 5.70001 11.7C5.5 11.4 5.29999 11.1 5.20001 10.8C4.90002 10 4 7.59998 4.90002 5.90002C5.40002 4.90002 6.29999 4.29993 7.79999 4C7.79999 4 8.5 3.90002 9.5 3.90002C11.4 3.90002 14.2 4.40002 14.9 7.40002C15 8 14.9 8.59998 14.5 9.09998ZM7 6.79993C6.90002 6.3999 7 5.8999 7.40002 5.69995C8.79999 4.99988 11.8 4.3999 13.1 6.69995C13.3 7.09998 13.2 7.59998 12.8 7.79993C12.7 7.8999 12.5 7.8999 12.4 7.8999C12.1 7.8999 11.8 7.79993 11.7 7.49988C11 6.19995 8.79999 6.8999 8.09998 7.19995C7.70001 7.3999 7.20001 7.19995 7 6.79993Z" fill="#202020"/>
</svg>
