<svg width="26" height="22" viewBox="0 0 26 22" fill="none" xmlns="http://www.w3.org/2000/svg">
<path fill-rule="evenodd" clip-rule="evenodd" d="M10.432 2.03427C10.582 1.88424 10.7855 1.79995 10.9977 1.79995H14.9977C15.2098 1.79995 15.4133 1.88424 15.5633 2.03427C15.7134 2.1843 15.7977 2.38778 15.7977 2.59995V3.3999H10.1977V2.59995C10.1977 2.38778 10.2819 2.1843 10.432 2.03427ZM9.3887 4.9999C9.39168 4.99994 9.39467 4.99995 9.39766 4.99995C9.40065 4.99995 9.40363 4.99994 9.40661 4.9999H16.5887C16.5917 4.99994 16.5947 4.99995 16.5977 4.99995C16.6006 4.99995 16.6036 4.99994 16.6066 4.9999H22.5992C23.4829 4.9999 24.1992 5.71625 24.1992 6.5999V18.5999C24.1992 19.4836 23.4829 20.1999 22.5992 20.1999H3.39922C2.51556 20.1999 1.79922 19.4836 1.79922 18.5999V6.5999C1.79922 5.71625 2.51556 4.9999 3.39922 4.9999H9.3887ZM8.59766 3.3999V2.59995C8.59766 1.96343 8.85051 1.35298 9.3006 0.902895C9.75069 0.452808 10.3611 0.199951 10.9977 0.199951H14.9977C15.6342 0.199951 16.2446 0.452808 16.6947 0.902895C17.1448 1.35298 17.3977 1.96343 17.3977 2.59995V3.3999H22.5992C24.3665 3.3999 25.7992 4.83259 25.7992 6.5999V18.5999C25.7992 20.3672 24.3665 21.7999 22.5992 21.7999H3.39922C1.63191 21.7999 0.199219 20.3672 0.199219 18.5999V6.5999C0.199219 4.83259 1.63191 3.3999 3.39922 3.3999H8.59766ZM11.0008 8.1999C11.0008 7.75807 11.359 7.3999 11.8008 7.3999H14.2008C14.6426 7.3999 15.0008 7.75807 15.0008 8.1999V10.5999H17.4008C17.8426 10.5999 18.2008 10.9581 18.2008 11.3999V13.7999C18.2008 14.2417 17.8426 14.5999 17.4008 14.5999H15.0008V16.9999C15.0008 17.4417 14.6426 17.7999 14.2008 17.7999H11.8008C11.359 17.7999 11.0008 17.4417 11.0008 16.9999V14.5999H8.60078C8.15895 14.5999 7.80078 14.2417 7.80078 13.7999V11.3999C7.80078 10.9581 8.15895 10.5999 8.60078 10.5999H11.0008V8.1999ZM12.6008 8.9999V11.3999C12.6008 11.8417 12.2426 12.1999 11.8008 12.1999H9.40078V12.9999H11.8008C12.2426 12.9999 12.6008 13.3581 12.6008 13.7999V16.1999H13.4008V13.7999C13.4008 13.3581 13.759 12.9999 14.2008 12.9999H16.6008V12.1999H14.2008C13.759 12.1999 13.4008 11.8417 13.4008 11.3999V8.9999H12.6008Z" fill="#333333"/>
</svg>
