<svg xmlns="http://www.w3.org/2000/svg" viewBox="0 0 25.6 22.4"><defs><style>.cls-1{fill:#333;}</style></defs><title>Asset 2</title><g id="Layer_2" data-name="Layer 2"><g id="Layer_1-2" data-name="Layer 1"><path class="cls-1" d="M6.4,6.4a.8.8,0,0,0-.8-.8H4.8a.8.8,0,0,0,0,1.6h.8A.8.8,0,0,0,6.4,6.4Z"/><path class="cls-1" d="M19.6,11.6a1.2,1.2,0,1,0,1.2,1.2A1.2,1.2,0,0,0,19.6,11.6Zm0,1.6a.4.4,0,1,1,.4-.4A.4.4,0,0,1,19.6,13.2Z"/><path class="cls-1" d="M18.4,20h.8a.8.8,0,0,0,0-1.6h-.8a.8.8,0,0,0,0,1.6Z"/><path class="cls-1" d="M24,9.6V5.2a2,2,0,0,0-.59-1.41,2,2,0,0,0-1-.55V2A2,2,0,0,0,21.81.59,2,2,0,0,0,20.4,0H2.4A2.39,2.39,0,0,0,0,2.4H0v18a2,2,0,0,0,.59,1.41A2,2,0,0,0,2,22.4H22a2,2,0,0,0,2-2V16a1.6,1.6,0,0,0,1.6-1.6V11.2A1.6,1.6,0,0,0,24,9.6ZM1.83,1.83A.81.81,0,0,1,2.4,1.6h18a.36.36,0,0,1,.28.12A.36.36,0,0,1,20.8,2V3.2H2.4a.81.81,0,0,1-.57-1.37ZM22.4,20.4a.41.41,0,0,1-.4.4H2a.36.36,0,0,1-.28-.12.36.36,0,0,1-.12-.28V4.66a2.36,2.36,0,0,0,.8.14H22a.41.41,0,0,1,.4.4V9.6H17.6A1.6,1.6,0,0,0,16,11.2v3.2A1.6,1.6,0,0,0,17.6,16h4.8Zm1.6-6H17.6V11.2H24Z"/><path class="cls-1" d="M16.8,7.2h.8a.8.8,0,0,0,0-1.6h-.8a.8.8,0,0,0,0,1.6Z"/><path class="cls-1" d="M15.2,18.4h-.8a.8.8,0,0,0,0,1.6h.8a.8.8,0,0,0,0-1.6Z"/><path class="cls-1" d="M14.4,6.4a.8.8,0,0,0-.8-.8h-.8a.8.8,0,0,0,0,1.6h.8A.8.8,0,0,0,14.4,6.4Z"/><path class="cls-1" d="M10.4,6.4a.8.8,0,0,0-.8-.8H8.8a.8.8,0,1,0,0,1.6h.8A.8.8,0,0,0,10.4,6.4Z"/><path class="cls-1" d="M7.2,18.4H6.4a.8.8,0,0,0,0,1.6h.8a.8.8,0,0,0,0-1.6Z"/><path class="cls-1" d="M11.2,18.4h-.8a.8.8,0,0,0,0,1.6h.8a.8.8,0,0,0,0-1.6Z"/></g></g></svg>