<svg width="26" height="23" viewBox="0 0 26 23" fill="none" xmlns="http://www.w3.org/2000/svg">
<path fill-rule="evenodd" clip-rule="evenodd" d="M0.902162 0.902895C1.35225 0.452808 1.9627 0.199951 2.59922 0.199951H20.5992C21.1297 0.199951 21.6384 0.410665 22.0134 0.785738C22.3885 1.16081 22.5992 1.66952 22.5992 2.19995V3.44035C22.9806 3.51821 23.3341 3.70638 23.6134 3.98574C23.9885 4.36081 24.1992 4.86952 24.1992 5.39995V9.79993C25.0829 9.79993 25.7992 10.5163 25.7992 11.3999V14.5999C25.7992 15.4836 25.0829 16.1999 24.1992 16.1999V20.5999C24.1992 21.1304 23.9885 21.6391 23.6134 22.0141C23.2384 22.3892 22.7297 22.5999 22.1992 22.5999H2.19922C1.66878 22.5999 1.16008 22.3892 0.785005 22.0141C0.409933 21.6391 0.199219 21.1304 0.199219 20.5999V2.59995V2.59993V2.59863C0.199568 1.96259 0.452386 1.35267 0.902162 0.902895ZM23.3992 14.5999H24.1992V11.3999H23.4056L23.3992 11.4L23.3929 11.3999H17.7992V14.5999H23.3992ZM22.5992 9.79993H17.7992C16.9156 9.79993 16.1992 10.5163 16.1992 11.3999V14.5999C16.1992 15.4836 16.9156 16.1999 17.7992 16.1999H22.5992V20.5999C22.5992 20.706 22.5571 20.8078 22.4821 20.8828C22.407 20.9578 22.3053 20.9999 22.1992 20.9999H2.19922C2.09313 20.9999 1.99139 20.9578 1.91638 20.8828C1.84136 20.8078 1.79922 20.706 1.79922 20.5999V4.86269C2.05378 4.9527 2.32406 4.99995 2.59922 4.99995H22.1992C22.3053 4.99995 22.407 5.04209 22.4821 5.11711C22.5571 5.19212 22.5992 5.29387 22.5992 5.39995V9.79993ZM2.03353 3.16564C1.8835 3.01561 1.79922 2.81212 1.79922 2.59995C1.79922 2.38778 1.8835 2.18429 2.03353 2.03427C2.18356 1.88424 2.38705 1.79995 2.59922 1.79995H20.5992C20.7053 1.79995 20.807 1.84209 20.8821 1.91711C20.9571 1.99212 20.9992 2.09387 20.9992 2.19995V3.39995H2.59922C2.38705 3.39995 2.18356 3.31567 2.03353 3.16564ZM4.19922 6.59993C4.19922 6.1581 4.55739 5.79993 4.99922 5.79993H5.79922C6.24105 5.79993 6.59922 6.1581 6.59922 6.59993C6.59922 7.04175 6.24105 7.39993 5.79922 7.39993H4.99922C4.55739 7.39993 4.19922 7.04175 4.19922 6.59993ZM8.19922 6.59993C8.19922 6.1581 8.55739 5.79993 8.99922 5.79993H9.79922C10.241 5.79993 10.5992 6.1581 10.5992 6.59993C10.5992 7.04175 10.241 7.39993 9.79922 7.39993H8.99922C8.55739 7.39993 8.19922 7.04175 8.19922 6.59993ZM12.1992 6.59993C12.1992 6.1581 12.5574 5.79993 12.9992 5.79993H13.7992C14.241 5.79993 14.5992 6.1581 14.5992 6.59993C14.5992 7.04175 14.241 7.39993 13.7992 7.39993H12.9992C12.5574 7.39993 12.1992 7.04175 12.1992 6.59993ZM16.1992 6.59993C16.1992 6.1581 16.5574 5.79993 16.9992 5.79993H17.7992C18.241 5.79993 18.5992 6.1581 18.5992 6.59993C18.5992 7.04175 18.241 7.39993 17.7992 7.39993H16.9992C16.5574 7.39993 16.1992 7.04175 16.1992 6.59993ZM5.79922 19.3999C5.79922 18.9581 6.15739 18.5999 6.59922 18.5999H7.39922C7.84105 18.5999 8.19922 18.9581 8.19922 19.3999C8.19922 19.8418 7.84105 20.1999 7.39922 20.1999H6.59922C6.15739 20.1999 5.79922 19.8418 5.79922 19.3999ZM9.79922 19.3999C9.79922 18.9581 10.1574 18.5999 10.5992 18.5999H11.3992C11.841 18.5999 12.1992 18.9581 12.1992 19.3999C12.1992 19.8418 11.841 20.1999 11.3992 20.1999H10.5992C10.1574 20.1999 9.79922 19.8418 9.79922 19.3999ZM13.7992 19.3999C13.7992 18.9581 14.1574 18.5999 14.5992 18.5999H15.3992C15.841 18.5999 16.1992 18.9581 16.1992 19.3999C16.1992 19.8418 15.841 20.1999 15.3992 20.1999H14.5992C14.1574 20.1999 13.7992 19.8418 13.7992 19.3999ZM17.7992 19.3999C17.7992 18.9581 18.1574 18.5999 18.5992 18.5999H19.3992C19.841 18.5999 20.1992 18.9581 20.1992 19.3999C20.1992 19.8418 19.841 20.1999 19.3992 20.1999H18.5992C18.1574 20.1999 17.7992 19.8418 17.7992 19.3999ZM20.1977 12.9999C20.1977 13.2208 20.0186 13.3999 19.7977 13.3999C19.5767 13.3999 19.3977 13.2208 19.3977 12.9999C19.3977 12.779 19.5767 12.5999 19.7977 12.5999C20.0186 12.5999 20.1977 12.779 20.1977 12.9999ZM19.7977 11.7999C19.1349 11.7999 18.5977 12.3372 18.5977 12.9999C18.5977 13.6627 19.1349 14.1999 19.7977 14.1999C20.4604 14.1999 20.9977 13.6627 20.9977 12.9999C20.9977 12.3372 20.4604 11.7999 19.7977 11.7999Z" fill="#333333"/>
</svg>
